<svg width="36" height="42" viewBox="0 0 36 42" fill="none" xmlns="http://www.w3.org/2000/svg">
<path d="M33.6791 4.49048H11.7546C10.698 4.62255 9.77343 5.41501 9.50928 6.47161V39.7547C9.77343 40.8113 10.5659 41.7358 11.6225 41.8678H33.4149C35.6602 41.4716 35.6602 39.7547 35.6602 39.7547V6.33953C35.5281 4.8867 33.6791 4.49048 33.6791 4.49048ZM12.1508 40.415C11.6225 40.415 11.2263 40.0188 11.2263 39.6226V7.13199C11.2263 6.60369 11.6225 6.33953 12.1508 6.33953H33.1508C33.547 6.33953 33.9432 6.73576 33.9432 7.13199V39.4905C33.9432 40.0188 33.547 40.283 33.1508 40.283H12.1508V40.415Z" fill="#1D1D1F"/>
<path d="M8.58491 40.283C8.58491 40.283 8.98114 41.6038 9.77359 42H1.84906C0.924531 41.7359 0.264151 41.0755 0 40.151V2.24528C0.132076 1.18868 1.05661 0.264151 2.24529 0H27.4717C27.4717 0 29.3208 0.528294 29.5849 1.84905V3.43395H27.7359V2.50943C27.7359 2.50943 27.7359 1.84905 26.8113 1.84905H2.24529C1.98114 1.98112 1.71699 2.24528 1.58491 2.64151V39.7547C1.71699 40.0189 1.98114 40.283 2.24529 40.4151H8.58491V40.283Z" fill="#1D1D1F"/>
</svg>
