<svg width="43" height="43" viewBox="0 0 43 43" fill="none" xmlns="http://www.w3.org/2000/svg">
<rect width="43" height="43" rx="12" fill="#0672E5"/>
<path fill-rule="evenodd" clip-rule="evenodd" d="M13.25 16.3535C12.0957 16.68 11.25 17.7412 11.25 19C11.25 20.5188 12.4812 21.75 14 21.75C15.5188 21.75 16.75 20.5188 16.75 19C16.75 17.7412 15.9043 16.68 14.75 16.3535L14.75 13C14.75 12.5858 14.4142 12.25 14 12.25C13.5858 12.25 13.25 12.5858 13.25 13L13.25 16.3535ZM12.75 19C12.75 18.3096 13.3096 17.75 14 17.75C14.6904 17.75 15.25 18.3096 15.25 19C15.25 19.6904 14.6904 20.25 14 20.25C13.3096 20.25 12.75 19.6904 12.75 19ZM14.75 24C14.75 23.5858 14.4142 23.25 14 23.25C13.5858 23.25 13.25 23.5858 13.25 24L13.25 31C13.25 31.4142 13.5858 31.75 14 31.75C14.4142 31.75 14.75 31.4142 14.75 31L14.75 24ZM28.75 13C28.75 12.5858 28.4142 12.25 28 12.25C27.5858 12.25 27.25 12.5858 27.25 13V16.3535C26.0957 16.68 25.25 17.7412 25.25 19C25.25 20.5188 26.4812 21.75 28 21.75C29.5188 21.75 30.75 20.5188 30.75 19C30.75 17.7412 29.9043 16.68 28.75 16.3535V13ZM28.75 24C28.75 23.5858 28.4142 23.25 28 23.25C27.5858 23.25 27.25 23.5858 27.25 24V31C27.25 31.4142 27.5858 31.75 28 31.75C28.4142 31.75 28.75 31.4142 28.75 31V24ZM21 12.25C21.4142 12.25 21.75 12.5858 21.75 13V20C21.75 20.4142 21.4142 20.75 21 20.75C20.5858 20.75 20.25 20.4142 20.25 20V13C20.25 12.5858 20.5858 12.25 21 12.25ZM20.25 27.6465V31C20.25 31.4142 20.5858 31.75 21 31.75C21.4142 31.75 21.75 31.4142 21.75 31V27.6465C22.9043 27.32 23.75 26.2588 23.75 25C23.75 23.4812 22.5188 22.25 21 22.25C19.4812 22.25 18.25 23.4812 18.25 25C18.25 26.2588 19.0957 27.32 20.25 27.6465ZM28 17.75C27.3096 17.75 26.75 18.3096 26.75 19C26.75 19.6904 27.3096 20.25 28 20.25C28.6904 20.25 29.25 19.6904 29.25 19C29.25 18.3096 28.6904 17.75 28 17.75ZM19.75 25C19.75 24.3096 20.3096 23.75 21 23.75C21.6904 23.75 22.25 24.3096 22.25 25C22.25 25.6904 21.6904 26.25 21 26.25C20.3096 26.25 19.75 25.6904 19.75 25Z" fill="white"/>
</svg>
