<svg width="32" height="32" viewBox="0 0 32 32" fill="none" xmlns="http://www.w3.org/2000/svg">
<mask id="mask0_236_2267" style="mask-type:luminance" maskUnits="userSpaceOnUse" x="3" y="3" width="26" height="26">
<path fill-rule="evenodd" clip-rule="evenodd" d="M3.55469 3.55566L28.4436 3.55566L28.4436 28.4446L3.55469 28.4446L3.55469 3.55566Z" fill="white"/>
</mask>
<g mask="url(#mask0_236_2267)">
<path fill-rule="evenodd" clip-rule="evenodd" d="M5.77269 15.1988C7.47714 20.766 14.211 25.2675 16.0006 26.3817C17.7962 25.256 24.5787 20.7047 26.2284 15.2039C27.3116 11.6482 26.3062 7.14417 22.3114 5.79258C20.3759 5.14039 18.1184 5.53732 16.5598 6.8034C16.234 7.06631 15.7817 7.07142 15.4535 6.81106C13.8025 5.50796 11.6458 5.12635 9.68003 5.79258C5.69124 7.14289 4.68949 11.6469 5.77269 15.1988M16.0012 28.4447C15.8505 28.4447 15.7009 28.4064 15.5648 28.3286C15.1842 28.1103 6.22071 22.9235 4.03606 15.7839C4.03485 15.7839 4.03485 15.7827 4.03485 15.7827C2.66351 11.2876 4.19046 5.63872 9.12021 3.97061C11.4349 3.18441 13.9576 3.53029 15.9976 4.88188C17.9743 3.56985 20.6003 3.20739 22.8688 3.97061C27.8034 5.64127 29.3352 11.2888 27.9651 15.7827C25.851 22.8405 16.8218 28.1052 16.4389 28.326C16.3027 28.4051 16.1519 28.4447 16.0012 28.4447" fill="#C7CBD1"/>
</g>
<path fill-rule="evenodd" clip-rule="evenodd" d="M23.1908 13.2877C22.7203 13.2877 22.3216 12.9087 22.2827 12.4084C22.2024 11.3593 21.5338 10.4735 20.5819 10.1506C20.1017 9.98725 19.8391 9.44738 19.9935 8.9458C20.1503 8.44295 20.6597 8.16982 21.1411 8.32808C22.7981 8.89092 23.9591 10.4314 24.1014 12.2527C24.1415 12.7798 23.7683 13.2418 23.2662 13.2839C23.2406 13.2865 23.2163 13.2877 23.1908 13.2877Z" fill="#C7CBD1"/>
</svg>
