<svg width="30" height="39" viewBox="0 0 30 39" fill="none" xmlns="http://www.w3.org/2000/svg">
<path d="M27.463 0H2.33437C1.09853 0.252427 0.27463 1.13592 0 2.14563V37.1068C0.27463 38.6214 2.33437 39 2.33437 39H27.3256C28.5615 38.8738 29.5227 37.9903 29.66 36.8544V2.14563C29.5227 0.504854 27.463 0 27.463 0ZM3.02094 37.233C2.47168 37.233 2.19704 36.8544 2.19704 36.4757V2.65049C2.19704 2.27184 2.609 1.8932 3.02094 1.8932H26.9137C27.3256 1.8932 27.7376 2.27184 27.7376 2.65049V36.4757C27.7376 36.8544 27.3256 37.233 26.9137 37.233H3.02094Z" fill="#1D1D1F"/>
</svg>
