<svg width="30" height="39" viewBox="0 0 30 39" fill="none" xmlns="http://www.w3.org/2000/svg">
<path d="M28.5912 0H1.33604C0.133604 0.123028 0 1.23028 0 1.23028V38.1388C0.133604 38.877 1.06883 39 1.06883 39H28.5912C29.1256 39 29.5264 38.6309 29.66 38.1388V1.10726C29.5264 0.246059 28.5912 0 28.5912 0ZM14.83 1.35331C14.83 1.35331 14.9636 1.35331 15.0972 1.35331C15.3644 1.47634 15.498 1.59937 15.498 1.84543C15.498 2.09148 15.3644 2.33754 15.0972 2.33754C14.9636 2.33754 14.9636 2.33754 14.83 2.33754C14.4292 2.33754 14.162 2.09148 14.162 1.7224C14.162 1.59937 14.4292 1.35331 14.83 1.35331ZM14.9636 38.1388H14.83C14.2956 38.1388 13.7612 37.7697 13.7612 37.1546C13.7612 36.6625 14.162 36.1703 14.83 36.1703H14.9636C15.498 36.2934 15.7652 36.6625 15.7652 37.1546C15.8988 37.6467 15.498 38.0158 14.9636 38.1388ZM2.00405 35.4322V3.69085H27.6559V35.4322H2.00405Z" fill="#1D1D1F"/>
</svg>
