<svg width="22" height="30" viewBox="0 0 22 30" fill="none" xmlns="http://www.w3.org/2000/svg">
<path d="M21.1896 0H0.990168C0.0990168 0.0921766 0 0.921766 0 0.921766V28.5748C0.0990168 29.1278 0.792137 29.22 0.792137 29.22H21.1896C21.5857 29.22 21.8827 28.9435 21.9817 28.5748V0.829591C21.8827 0.184355 21.1896 0 21.1896 0ZM10.9909 1.01394C10.9909 1.01394 11.0899 1.01394 11.1889 1.01394C11.3869 1.10612 11.4859 1.1983 11.4859 1.38265C11.4859 1.567 11.3869 1.75136 11.1889 1.75136C11.0899 1.75136 11.0899 1.75136 10.9909 1.75136C10.6938 1.75136 10.4958 1.567 10.4958 1.29047C10.4958 1.1983 10.6938 1.01394 10.9909 1.01394ZM11.0899 28.5748H10.9909C10.5948 28.5748 10.1987 28.2982 10.1987 27.8373C10.1987 27.4686 10.4958 27.0999 10.9909 27.0999H11.0899C11.4859 27.1921 11.684 27.4686 11.684 27.8373C11.783 28.2061 11.4859 28.4826 11.0899 28.5748ZM1.48525 26.5469V2.7653H20.4965V26.5469H1.48525Z" fill="#1D1D1F"/>
</svg>
