<svg width="35" height="29" viewBox="0 0 35 29" fill="none" xmlns="http://www.w3.org/2000/svg">
<path opacity="0.9" d="M33.7931 0.229832C33.7931 0.229832 7.89968 0.121951 2.19436 0.229832C1.53605 0.229832 1.09718 0.229832 1.09718 0.229832C0.329153 0.337713 0 1.20075 0 1.20075C0 1.20075 0 22.3454 0 22.9927C0 23.64 0.987487 23.8557 0.987487 23.8557H15.2508C15.2508 24.9345 14.9216 26.0134 14.5925 26.9843C13.9341 28.3867 12.7273 28.171 12.3981 28.3867C12.0689 28.4946 12.2884 28.8182 12.2884 28.8182H22.4921C22.6019 28.8182 22.7116 28.6025 22.7116 28.4946C22.7116 28.3867 22.7116 28.3867 22.6018 28.3867C21.0658 28.2789 20.627 27.6316 20.5172 27.3079C20.4075 27.0922 19.6395 23.7479 19.6395 23.7479H33.9028C34.8903 23.7479 35 22.8848 35 22.7769V1.09288C34.6708 0.553478 33.7931 0.229832 33.7931 0.229832ZM17.7743 22.669C17.6646 22.669 17.6646 22.669 17.5548 22.5612H17.4452C17.3354 22.5612 17.3354 22.5612 17.2257 22.5612C17.2257 22.5612 17.116 22.5612 17.0063 22.669C16.8965 22.669 16.7868 22.5612 16.6771 22.3454C16.4577 22.1296 16.3479 21.5902 16.5674 21.2666C16.6771 21.0508 16.7868 21.0508 17.0063 21.0508H17.1159C17.2257 21.0508 17.2257 21.1587 17.3354 21.1587H17.4452C17.5549 21.1587 17.5548 21.0508 17.6645 21.0508H17.7743C17.884 21.0508 17.9937 21.1587 17.9937 21.2666C17.884 21.3745 17.7743 21.4823 17.7743 21.6981C17.7743 21.9139 17.884 22.0218 18.1034 22.1296C18.1034 22.2375 17.9937 22.3454 17.9937 22.4533C17.884 22.5612 17.884 22.669 17.7743 22.669C17.884 22.669 17.7743 22.669 17.7743 22.669ZM17.6645 20.7272C17.6645 20.7272 17.6645 20.8351 17.6645 20.7272C17.6645 20.8351 17.6646 20.8351 17.5548 20.8351C17.5548 20.943 17.3354 20.9429 17.2257 20.9429C17.2257 20.8351 17.2257 20.7272 17.3354 20.6193C17.4451 20.5114 17.5548 20.5114 17.6645 20.5114C17.7743 20.6193 17.7743 20.7272 17.6645 20.7272ZM1.31663 19.4326V1.63229H33.2445V19.4326H1.31663Z" fill="#1D1D1F"/>
</svg>
