<svg width="36" height="31" viewBox="0 0 36 31" fill="none" xmlns="http://www.w3.org/2000/svg">
<path d="M35.6604 29.9959V31H7.98701V30.498L6.4121 30.8745C6.29961 30.8745 6.29963 30.8745 6.18714 30.8745C5.96215 30.8745 5.73716 30.749 5.62467 30.6235C5.39968 30.247 5.62467 29.7449 5.62467 29.7449L6.4121 28.1134L6.07464 27.9879L9.22444 18.5749V18.3239L0 0.62753L0.899934 0L8.32451 14.3077L14.9616 27.2348L14.2866 27.7369L9.78691 19.0769L6.74961 28.2389L6.4121 28.1134L5.62467 29.8705C5.62467 29.996 5.62467 30.1215 5.62467 30.247C5.62467 30.3725 5.62464 30.498 5.73714 30.498C5.84963 30.6235 5.96212 30.6235 6.2996 30.6235L7.98701 30.247V29.9959H35.6604Z" fill="#1D1D1F"/>
<path d="M6.97458 30.247C7.28522 30.247 7.53704 29.966 7.53704 29.6195C7.53704 29.2729 7.28522 28.9919 6.97458 28.9919C6.66393 28.9919 6.41211 29.2729 6.41211 29.6195C6.41211 29.966 6.66393 30.247 6.97458 30.247Z" fill="#1D1D1F"/>
</svg>
