<svg width="28" height="28" viewBox="0 0 28 28" fill="none" xmlns="http://www.w3.org/2000/svg">
<path d="M25.6667 9.93992V4.64325C25.6667 2.99825 24.92 2.33325 23.065 2.33325H18.3517C16.4967 2.33325 15.75 2.99825 15.75 4.64325V9.92825C15.75 11.5849 16.4967 12.2383 18.3517 12.2383H23.065C24.92 12.2499 25.6667 11.5849 25.6667 9.93992Z" stroke="#555A61" stroke-width="1.5" stroke-linecap="round" stroke-linejoin="round"/>
<path d="M25.6667 23.065V18.3517C25.6667 16.4967 24.92 15.75 23.065 15.75H18.3517C16.4967 15.75 15.75 16.4967 15.75 18.3517V23.065C15.75 24.92 16.4967 25.6667 18.3517 25.6667H23.065C24.92 25.6667 25.6667 24.92 25.6667 23.065Z" stroke="#555A61" stroke-width="1.5" stroke-linecap="round" stroke-linejoin="round"/>
<path d="M12.2502 9.93992V4.64325C12.2502 2.99825 11.5035 2.33325 9.6485 2.33325H4.93516C3.08016 2.33325 2.3335 2.99825 2.3335 4.64325V9.92825C2.3335 11.5849 3.08016 12.2383 4.93516 12.2383H9.6485C11.5035 12.2499 12.2502 11.5849 12.2502 9.93992Z" stroke="#555A61" stroke-width="1.5" stroke-linecap="round" stroke-linejoin="round"/>
<path d="M12.2502 23.065V18.3517C12.2502 16.4967 11.5035 15.75 9.6485 15.75H4.93516C3.08016 15.75 2.3335 16.4967 2.3335 18.3517V23.065C2.3335 24.92 3.08016 25.6667 4.93516 25.6667H9.6485C11.5035 25.6667 12.2502 24.92 12.2502 23.065Z" stroke="#555A61" stroke-width="1.5" stroke-linecap="round" stroke-linejoin="round"/>
</svg>
