<svg width="25" height="38" viewBox="0 0 25 38" fill="none" xmlns="http://www.w3.org/2000/svg">
<path d="M24.996 34.8398C24.996 34.8398 25.115 35.5436 24.0438 35.6609H21.7822V32.4937H23.3296V4.57486H21.7822V1.5249H23.8057C23.8057 1.5249 24.7579 1.5249 24.877 2.34604L24.996 34.8398Z" fill="#1D1D1F"/>
<path d="M21.0682 36.3648C21.0682 36.3648 21.0682 37.4206 19.7589 37.186C19.7589 37.186 15.8309 35.8956 15.2358 35.4264C15.2358 35.4264 14.6406 34.8399 14.6406 34.4879V3.04996C14.6406 3.04996 14.7596 2.11151 15.1167 1.8769L19.7589 0C19.7589 0 20.9491 1.43336e-05 20.9491 0.821156V36.3648H21.0682Z" fill="#515154"/>
<path d="M14.4025 35.6609H8.21298C8.21298 35.6609 7.37977 35.309 7.26074 34.7225V2.46335C7.26074 2.46335 7.61784 1.64221 8.09396 1.5249H14.5215C14.5215 1.5249 13.6883 1.87682 13.6883 2.69796V34.6052C13.8073 34.6052 13.9264 35.4263 14.4025 35.6609Z" fill="#515154"/>
<path d="M7.14173 35.6609H0.952235C0.952235 35.6609 0.119029 35.309 0 34.7225V2.46335C0 2.46335 0.357083 1.64221 0.833199 1.5249H7.26075C7.26075 1.5249 6.42755 1.87682 6.42755 2.69796V34.6052C6.42755 34.6052 6.66562 35.4263 7.14173 35.6609Z" fill="#515154"/>
</svg>
